<svg width="16" height="16" viewBox="0 0 16 16" fill="none" xmlns="http://www.w3.org/2000/svg">
<path d="M16 1.4C16 1.04638 15.8595 0.707239 15.6095 0.457191C15.3594 0.207142 15.0203 0.0666669 14.6667 0.0666669L4 0C3.64638 0 3.30724 0.140476 3.05719 0.390525C2.80715 0.640573 2.66667 0.979711 2.66667 1.33333C2.66667 1.68696 2.80715 2.02609 3.05719 2.27614C3.30724 2.52619 3.64638 2.66667 4 2.66667H11.4133L0.386669 13.72C0.261698 13.844 0.162506 13.9914 0.0948143 14.1539C0.0271227 14.3164 -0.00772858 14.4907 -0.00772858 14.6667C-0.00772858 14.8427 0.0271227 15.017 0.0948143 15.1794C0.162506 15.3419 0.261698 15.4894 0.386669 15.6133C0.51062 15.7383 0.658088 15.8375 0.820567 15.9052C0.983046 15.9729 1.15732 16.0077 1.33334 16.0077C1.50935 16.0077 1.68363 15.9729 1.84611 15.9052C2.00858 15.8375 2.15605 15.7383 2.28 15.6133L13.3333 4.56V12C13.3333 12.3536 13.4738 12.6928 13.7239 12.9428C13.9739 13.1929 14.313 13.3333 14.6667 13.3333C15.0203 13.3333 15.3594 13.1929 15.6095 12.9428C15.8595 12.6928 16 12.3536 16 12V1.4Z" fill="#E6E6E6"/>
</svg>
