<svg width="309" height="364" viewBox="0 0 309 364" fill="none" xmlns="http://www.w3.org/2000/svg">
<mask id="mask0_253_149" style="mask-type:alpha" maskUnits="userSpaceOnUse" x="40" y="136" width="247" height="215">
<path d="M78.8628 326.052C81.7403 319.845 87.9354 316.228 92.4659 315.014C94.6778 299.705 102.183 284.117 106.316 276.613C97.5356 265.043 105.437 253.69 109.143 245.754C91.3548 248.967 62.4655 235.509 58.0754 234.504C49.3687 230.052 40.3054 220.868 40.5128 208.299C40.7809 192.056 64.8584 192.621 74.5587 196.061C87.4463 199.946 99.797 197.691 112.865 194.19C159.683 201.573 203.679 191.325 230.899 149.431C235.656 142.11 250.995 133.376 258.884 136.966C273.448 143.593 263.674 163.846 255.102 181.609L255.045 181.726C246.984 198.43 228.759 215.92 219.854 222.075C225.444 228.871 234.839 241.422 228.71 255.127C237.252 258.869 236.974 259.737 241.576 263.752C248.082 269.429 252.241 278.234 253.372 282.454C255.409 278.747 260.757 260.864 283.571 276.931C290.917 284.457 282.255 295.655 276.148 302.739C267.163 313.16 253.097 323.993 239.57 312.539C235.982 307.412 222.335 296.048 204.75 292.321C189.433 287.636 172.17 288.132 158.725 294.998C147.979 300.486 142.612 307.166 137.465 316.08C133.052 323.723 135.522 339.083 124.975 346.251C108.715 357.302 71.2024 342.575 78.8628 326.052Z" fill="#D9D9D9"/>
</mask>
<g mask="url(#mask0_253_149)">
<path d="M78.8628 326.052C81.7403 319.845 87.9354 316.228 92.4659 315.014C94.6778 299.705 102.183 284.117 106.316 276.613C97.5356 265.043 105.437 253.69 109.143 245.754C91.3548 248.967 62.4655 235.509 58.0754 234.504C49.3687 230.052 40.3054 220.868 40.5128 208.299C40.7809 192.056 64.8584 192.621 74.5587 196.061C87.4463 199.946 99.797 197.691 112.865 194.19C159.683 201.573 203.679 191.325 230.899 149.431C235.656 142.11 250.995 133.376 258.884 136.966C273.448 143.593 263.674 163.846 255.102 181.609L255.045 181.726C246.984 198.43 228.759 215.92 219.854 222.075C225.444 228.871 234.839 241.422 228.71 255.127C237.252 258.869 236.974 259.737 241.576 263.752C248.082 269.429 252.241 278.234 253.372 282.454C255.409 278.747 260.757 260.864 283.571 276.931C290.917 284.457 282.255 295.655 276.148 302.739C267.163 313.16 253.097 323.993 239.57 312.539C235.982 307.412 222.335 296.048 204.75 292.321C189.433 287.636 172.17 288.132 158.725 294.998C147.979 300.486 142.612 307.166 137.465 316.08C133.052 323.723 135.522 339.083 124.975 346.251C108.715 357.302 71.2024 342.575 78.8628 326.052Z" fill="#D9D9D9"/>
<path d="M104.211 246.263C53.9526 230.327 44.0408 218.659 39.5174 201.777C19.2835 227.554 62.0067 257.572 100.105 264.703C130.584 270.408 200.255 250.182 231.28 239.356C231.116 233.117 231.391 222.891 233.804 231.894C236.216 240.898 225.289 250.762 219.524 254.569C222.572 253.752 229.316 252.849 231.909 255.773C252.019 243.6 287.885 149.551 258.881 136.967C261.145 179.183 233.216 210.942 218.968 221.545C220.97 221.512 224.279 222.233 221.506 225.389C176.237 247.772 125.327 251.914 105.531 251.187C104.404 250.735 102.564 249.117 104.211 246.263Z" fill="#B4B4B4"/>
<path d="M224.24 156.802L238.184 166.637L232.658 174.149L255.194 190.728M73.6598 194.135L67.5816 210.842L77.2039 215.802L66.6798 241.24" stroke="#9B9B9B" stroke-width="3"/>
<path d="M139.995 315.081C129.804 297.305 104.211 295.015 92.6881 296.093C21.7723 401.665 169.239 389.523 240.888 348.36C280.842 325.406 322.679 254.068 248.533 267.151C225.913 275.021 223.249 293.778 224.745 302.173C200.741 313.882 150.186 332.857 139.995 315.081Z" fill="#5DA0BA"/>
<path d="M225.815 292.089C219.35 285.78 188.377 274.911 165.948 282.498C150.84 287.608 135.497 302.971 133.329 307.07L139.296 315.272L225.264 301.284L225.815 292.089Z" fill="#B4B4B4"/>
<path d="M122.753 329.503C123.867 320.158 130.267 310.652 133.327 307.068L139.999 315.081L228.229 309.534C226.457 305.736 223.495 296.93 225.816 292.087C230.81 294.97 235.66 299.752 237.461 301.783C243.486 306.451 260.702 311.991 281.36 296.805C256.973 380.239 86.3034 367.918 84.2536 340.573C109.213 343.686 121.359 341.185 122.753 329.503Z" fill="#3D7384"/>
</g>
<path d="M133.098 239.216C150.11 229.763 160.44 228.265 179.396 230.025C185.354 240.985 186.861 247.752 184.633 260.772C167.564 268.963 157.701 271.369 139.228 270.527C133.023 258.034 133.916 253.719 133.098 239.216Z" fill="#012334"/>
<mask id="mask1_253_149" style="mask-type:alpha" maskUnits="userSpaceOnUse" x="137" y="228" width="53" height="40">
<path d="M137.479 238.109C154.654 228.916 165.012 227.331 183.945 228.674C189.722 238.903 191.117 245.256 188.671 257.564C171.459 265.569 161.553 268.002 143.088 267.517C137.089 255.846 138.054 251.764 137.479 238.109Z" fill="#9B9B9B"/>
</mask>
<g mask="url(#mask1_253_149)">
<path d="M137.479 238.109C154.654 228.916 165.012 227.331 183.945 228.674C189.722 238.903 191.117 245.256 188.671 257.564C171.459 265.569 161.553 268.002 143.088 267.517C137.089 255.846 138.054 251.764 137.479 238.109Z" fill="#9B9B9B"/>
<path d="M151.3 230.636C152.138 238.453 154.493 256.62 157.207 266.749C159.921 276.878 168.241 275.101 172.457 270.202L170.319 248.158L160.283 250.093L156.551 227.722" stroke="#021334" stroke-width="2"/>
<circle cx="174.715" cy="236.424" r="2.18467" transform="rotate(-15 174.715 236.424)" fill="#021334"/>
<circle cx="177.078" cy="250.871" r="2.18467" transform="rotate(-15 177.078 250.871)" fill="#021334"/>
</g>
<mask id="mask2_253_149" style="mask-type:alpha" maskUnits="userSpaceOnUse" x="190" y="85" width="42" height="51">
<ellipse cx="211.116" cy="110.637" rx="20.3903" ry="25.4879" transform="rotate(-15 211.116 110.637)" fill="#D9D9D9"/>
</mask>
<g mask="url(#mask2_253_149)">
<ellipse cx="211.116" cy="110.637" rx="20.3903" ry="25.4879" transform="rotate(-15 211.116 110.637)" fill="#B4B4B4"/>
<ellipse cx="207.77" cy="100.98" rx="24.0314" ry="25.4879" transform="rotate(-15 207.77 100.98)" fill="#D9D9D9"/>
</g>
<mask id="mask3_253_149" style="mask-type:alpha" maskUnits="userSpaceOnUse" x="61" y="47" width="161" height="159">
<ellipse cx="141.507" cy="126.278" rx="80.0511" ry="78.9075" transform="rotate(3.06982 141.507 126.278)" fill="#B4B4B4"/>
</mask>
<g mask="url(#mask3_253_149)">
<ellipse cx="141.507" cy="126.278" rx="80.0511" ry="78.9075" transform="rotate(3.06982 141.507 126.278)" fill="#B4B4B4"/>
<ellipse cx="149.994" cy="117.567" rx="85.769" ry="78.9075" transform="rotate(3.06982 149.994 117.567)" fill="#DADADA"/>
</g>
<path d="M222.949 132.077C225.373 172.291 185.873 182.769 144.334 188.556C108.873 187.796 88.523 161.515 90.238 129.538C92.0306 96.1123 120.204 58.9987 158.045 61.0281C196.994 60.8231 220.934 98.6637 222.949 132.077Z" fill="#012334"/>
<path d="M128.273 88.875C129.386 88.0654 130.463 87.4764 131.456 87.0876C130.354 87.6413 129.293 88.2381 128.273 88.875C119.775 95.0573 109.169 114.101 117.504 155.053C103.28 134.595 106.412 102.524 128.273 88.875Z" fill="#5D6B72"/>
<path d="M187.352 91.2305C195.161 95.085 204.61 106.815 207.334 124.369" stroke="#5D6B72" stroke-width="4" stroke-linecap="round"/>
<circle cx="212.12" cy="141.801" r="4.57435" transform="rotate(3.06982 212.12 141.801)" fill="#5D6B72"/>
<ellipse cx="77.0592" cy="140.288" rx="22.8717" ry="26.3025" transform="rotate(3.06982 77.0592 140.288)" fill="#B4B4B4"/>
<ellipse cx="73.5828" cy="141.247" rx="19.441" ry="22.8717" transform="rotate(3.06982 73.5828 141.247)" fill="#C1C1C1"/>
<circle cx="73.7665" cy="137.821" r="19.441" transform="rotate(3.06982 73.7665 137.821)" fill="#DADADA"/>
<path d="M92.3352 317.297C89.9445 318.692 85.0352 324.38 84.5237 335.976C75.3658 327.122 86.0045 318.994 92.3352 317.297Z" fill="#AACED6"/>
<path d="M255.73 285.578C260.135 281.382 271.057 274.686 279.508 281.469C267.059 265.957 256.488 278.088 255.73 285.578Z" fill="#AACED6"/>
</svg>
