<svg width="111" height="188" viewBox="0 0 111 188" fill="none" xmlns="http://www.w3.org/2000/svg">
<mask id="mask0_255_506" style="mask-type:alpha" maskUnits="userSpaceOnUse" x="8" y="6" width="103" height="85">
<path d="M59 10.5823C37.4 3.38227 16 6.24893 8 8.58227V84.582C16 82.2487 37.4 79.382 59 86.582C80.6 93.782 102.667 89.582 111 86.582V10.5823C102.667 13.5823 80.6 17.7823 59 10.5823Z" fill="#5583B2"/>
</mask>
<g mask="url(#mask0_255_506)">
<rect x="-29" width="170" height="111" fill="#5583B2"/>
<path d="M63 52.5C23.5 91.5 18.5 45.5 18.5 3.5H6V98H113V67C101 77.5 65 87 63 52.5Z" fill="#234D85"/>
</g>
<rect width="12" height="188" fill="#A1A09D"/>
<rect x="5" width="7" height="188" fill="#CCCCCC"/>
<path fill-rule="evenodd" clip-rule="evenodd" d="M88.3032 74.4404C89.75 74.4404 90.9228 73.2676 90.9228 71.8208C90.9228 70.374 89.75 69.2012 88.3032 69.2012C86.8564 69.2012 85.6836 70.374 85.6836 71.8208C85.6836 73.2676 86.8564 74.4404 88.3032 74.4404ZM88.3013 72.8691C88.88 72.8691 89.3491 72.4 89.3491 71.8213C89.3491 71.2425 88.88 70.7734 88.3013 70.7734C87.7226 70.7734 87.2534 71.2425 87.2534 71.8213C87.2534 72.4 87.7226 72.8691 88.3013 72.8691Z" fill="white"/>
<path d="M80.8359 70.9058L81.6218 69.334C84.3724 69.334 85.2893 69.334 85.2893 70.9058C85.2893 72.4775 83.9795 72.6085 83.1936 72.6085C82.5649 72.6085 82.4077 72.7395 82.4077 72.8705H84.5034L84.8963 72.4775V74.3113H80.8359V72.6085C80.8359 71.4559 81.8077 71.0367 83.6414 71.0367C83.7724 71.0367 83.7724 70.9058 83.6414 70.9058H80.8359Z" fill="white"/>
<path d="M91.1836 70.9058L91.9695 69.334C94.7201 69.334 95.6369 69.334 95.6369 70.9058C95.6369 72.4775 94.3271 72.6085 93.5412 72.6085C92.9125 72.6085 92.7554 72.7395 92.7554 72.8705H94.8511L95.244 72.4775V74.3113H91.1836V72.6085C91.1836 71.4559 92.1553 71.0367 93.989 71.0367C94.12 71.0367 94.12 70.9058 93.989 70.9058H91.1836Z" fill="white"/>
<path d="M96.0273 72.6085L96.8132 69.334H98.254L97.9921 71.1677H98.516V69.334H100.088V71.1677H100.612L100.874 72.6085H100.088V74.3113H98.516V72.6085H96.0273Z" fill="white"/>
<path d="M87.7773 56.6289H91.3138V60.6893L96.815 56.6289H100.613L95.1123 62.3921L100.351 68.0242L96.815 68.2862L91.3138 63.5709V68.0242H87.7773V56.6289Z" fill="white"/>
<path d="M50.3159 42.2207H46.6484V48.5078C46.6484 51.6513 48.4822 54.1399 53.4594 54.1399C58.4367 54.1399 60.2704 51.6513 60.2704 48.5078V42.2207H56.603V48.1148C56.603 50.2105 55.9481 50.7344 53.4594 50.7344C50.9708 50.7344 50.3159 50.2105 50.3159 48.1148V42.2207Z" fill="white"/>
<path fill-rule="evenodd" clip-rule="evenodd" d="M54.4937 27.6231C51.8221 25.7621 48.5742 24.6709 45.0715 24.6709C35.9569 24.6709 28.568 32.0598 28.568 41.1745C28.568 50.2892 35.9569 57.6781 45.0715 57.6781C48.2699 57.6781 51.2558 56.7682 53.7845 55.1933C50.2193 58.6757 45.3431 60.8218 39.9656 60.8218C29.0425 60.8218 20.1875 51.9669 20.1875 41.0437C20.1875 30.1206 29.0425 21.2656 39.9656 21.2656C45.7089 21.2656 50.8804 23.7136 54.4937 27.6231Z" fill="white"/>
<path d="M27.0024 10C27.0024 10 26.8574 16.1895 29.3363 18.6684C31.8153 21.1474 38.0048 21.0024 38.0048 21.0024C38.0048 21.0024 31.8153 20.8574 29.3363 23.3363C26.8574 25.8153 27.0024 32.0048 27.0024 32.0048C27.0024 32.0048 27.1474 25.8153 24.6684 23.3363C22.1895 20.8574 16 21.0024 16 21.0024C16 21.0024 22.1895 21.1474 24.6684 18.6684C27.1474 16.1895 27.0024 10 27.0024 10Z" fill="white"/>
<path d="M36.959 27.0273C36.959 27.0273 36.9314 28.4273 37.4035 28.9881C37.8757 29.5488 39.0547 29.516 39.0547 29.516C39.0547 29.516 37.8757 29.4832 37.4035 30.0439C36.9314 30.6046 36.959 32.0046 36.959 32.0046C36.959 32.0046 36.9866 30.6046 36.5144 30.0439C36.0422 29.4832 34.8633 29.516 34.8633 29.516C34.8633 29.516 36.0422 29.5488 36.5144 28.9881C36.9866 28.4273 36.959 27.0273 36.959 27.0273Z" fill="white"/>
<path d="M99.4379 51.6504C99.4379 51.6504 99.4051 53.3451 99.9658 54.0239C100.526 54.7027 101.926 54.6629 101.926 54.6629C101.926 54.6629 100.526 54.6232 99.9658 55.302C99.4051 55.9808 99.4379 57.6755 99.4379 57.6755C99.4379 57.6755 99.4707 55.9808 98.9099 55.302C98.3492 54.6232 96.9492 54.6629 96.9492 54.6629C96.9492 54.6629 98.3492 54.7027 98.9099 54.0239C99.4707 53.3451 99.4379 51.6504 99.4379 51.6504Z" fill="white"/>
<path d="M100.613 57.9395C100.613 57.9395 100.561 60.6658 101.447 61.7577C102.332 62.8496 104.542 62.7857 104.542 62.7857C104.542 62.7857 102.332 62.7219 101.447 63.8138C100.561 64.9057 100.613 67.632 100.613 67.632C100.613 67.632 100.665 64.9057 99.7795 63.8138C98.8941 62.7219 96.6836 62.7857 96.6836 62.7857C96.6836 62.7857 98.8941 62.8496 99.7795 61.7577C100.665 60.6658 100.613 57.9395 100.613 57.9395Z" fill="white"/>
<path d="M38.9237 13.9297C38.9237 13.9297 38.8702 16.656 39.785 17.7479C40.6999 18.8398 42.9841 18.776 42.9841 18.776C42.9841 18.776 40.6999 18.7121 39.785 19.804C38.8702 20.896 38.9237 23.6223 38.9237 23.6223C38.9237 23.6223 38.9772 20.896 38.0623 19.804C37.1475 18.7121 34.8633 18.776 34.8633 18.776C34.8633 18.776 37.1475 18.8398 38.0623 17.7479C38.9772 16.656 38.9237 13.9297 38.9237 13.9297Z" fill="white"/>
<rect x="66.0352" y="44.3164" width="3.66746" height="9.43061" fill="white"/>
<rect x="74.6758" y="42.2207" width="2.88158" height="13.36" transform="rotate(90 74.6758 42.2207)" fill="white"/>
<rect x="78.8711" y="44.3164" width="3.66746" height="9.43061" fill="white"/>
<rect x="85.418" y="42.2207" width="2.88158" height="9.16865" transform="rotate(90 85.418 42.2207)" fill="white"/>
<rect x="85.418" y="50.8652" width="2.88158" height="9.16865" transform="rotate(90 85.418 50.8652)" fill="white"/>
<rect x="86.4727" y="44.3184" width="3.66746" height="9.43061" fill="white"/>
<rect x="98.2617" y="42.2227" width="2.88158" height="11.7883" transform="rotate(90 98.2617 42.2227)" fill="white"/>
<rect x="98.2617" y="50.8672" width="2.88158" height="11.7883" transform="rotate(90 98.2617 50.8672)" fill="white"/>
<rect x="98.2617" y="46.4121" width="2.88158" height="11.7883" transform="rotate(90 98.2617 46.4121)" fill="white"/>
<rect x="47.4375" y="56.3652" width="3.66746" height="11.5263" fill="white"/>
<rect x="57.3945" y="56.3652" width="3.66746" height="11.5263" fill="white"/>
<path d="M61.8438 69.2012L66.69 56.4961H69.8336L73.763 67.2365H70.6195L70.3575 66.4506H66.69L67.8689 63.4381H69.1787L68.2618 60.6875L65.5112 67.4985L61.8438 69.2012Z" fill="white"/>
<rect x="59.2266" y="60.5547" width="2.88158" height="11.7883" transform="rotate(90 59.2266 60.5547)" fill="white"/>
<path fill-rule="evenodd" clip-rule="evenodd" d="M86.4954 63.9281C85.731 66.6639 83.132 68.6779 80.0433 68.6779C76.354 68.6779 73.3633 65.8044 73.3633 62.2599C73.3633 58.7153 76.354 55.8418 80.0433 55.8418C83.2292 55.8418 85.8943 57.9847 86.5621 60.8522L83.022 61.0604C82.521 59.9892 81.4337 59.2471 80.173 59.2471C78.4368 59.2471 77.0294 60.6545 77.0294 62.3906C77.0294 64.1268 78.4368 65.5342 80.173 65.5342C81.4282 65.5342 82.5116 64.7985 83.0155 63.7348L86.4954 63.9281Z" fill="white"/>
</svg>
