<svg width="413" height="343" viewBox="0 0 413 343" fill="none" xmlns="http://www.w3.org/2000/svg">
<path fill-rule="evenodd" clip-rule="evenodd" d="M308 268C313.523 268 318 263.523 318 258C318 252.477 313.523 248 308 248C302.477 248 298 252.477 298 258C298 263.523 302.477 268 308 268ZM308 262C310.211 262 312 260.209 312 258C312 255.791 310.211 254 308 254C305.789 254 304 255.791 304 258C304 260.209 305.789 262 308 262Z" fill="white"/>
<path d="M279.5 254.5L282.5 248.5C293 248.5 296.5 248.5 296.5 254.5C296.5 260.5 291.5 261 288.5 261C286.1 261 285.5 261.5 285.5 262H293.5L295 260.5V267.5H279.5V261C279.5 256.6 283.209 255 290.209 255C290.709 255 290.709 254.5 290.209 254.5H279.5Z" fill="white"/>
<path d="M319 254.5L322 248.5C332.5 248.5 336 248.5 336 254.5C336 260.5 331 261 328 261C325.6 261 325 261.5 325 262H333L334.5 260.5V267.5H319V261C319 256.6 322.709 255 329.709 255C330.209 255 330.209 254.5 329.709 254.5H319Z" fill="white"/>
<path d="M337.5 261L340.5 248.5H346L345 255.5H347V248.5H353V255.5H355L356 261H353V267.5H347V261H337.5Z" fill="white"/>
<path d="M306 200H319.5V215.5L340.5 200H355L334 222L354 243.5L340.5 244.5L319.5 226.5V243.5H306V200Z" fill="white"/>
<path d="M163 145H149V169C149 181 156 190.5 175 190.5C194 190.5 201 181 201 169V145H187V167.5C187 175.5 184.5 177.5 175 177.5C165.5 177.5 163 175.5 163 167.5V145Z" fill="white"/>
<path fill-rule="evenodd" clip-rule="evenodd" d="M178.945 89.2559C168.75 82.1602 156.363 78 143 78C108.207 78 80 106.207 80 141C80 175.793 108.207 204 143 204C155.207 204 166.59 200.533 176.242 194.523C162.633 207.812 144.023 216 123.5 216C81.8008 216 48 182.197 48 140.5C48 98.8027 81.8008 65 123.5 65C145.418 65 165.152 74.3398 178.945 89.2559Z" fill="white"/>
<path d="M74 22C74 22 73.4464 45.6274 82.9095 55.0905C92.3726 64.5536 116 64 116 64C116 64 92.3726 63.4464 82.9095 72.9095C73.4464 82.3726 74 106 74 106C74 106 74.5536 82.3726 65.0905 72.9095C55.6274 63.4464 32 64 32 64C32 64 55.6274 64.5536 65.0905 55.0905C74.5536 45.6274 74 22 74 22Z" fill="white"/>
<path d="M112 87C112 87 111.895 92.3443 113.697 94.4847C115.5 96.6252 120 96.5 120 96.5C120 96.5 115.5 96.3748 113.697 98.5153C111.895 100.656 112 106 112 106C112 106 112.105 100.656 110.303 98.5153C108.5 96.3748 104 96.5 104 96.5C104 96.5 108.5 96.6252 110.303 94.4847C112.105 92.3443 112 87 112 87Z" fill="white"/>
<path d="M350.5 181C350.5 181 350.375 187.469 352.515 190.06C354.656 192.652 360 192.5 360 192.5C360 192.5 354.656 192.348 352.515 194.94C350.375 197.531 350.5 204 350.5 204C350.5 204 350.625 197.531 348.485 194.94C346.344 192.348 341 192.5 341 192.5C341 192.5 346.344 192.652 348.485 190.06C350.625 187.469 350.5 181 350.5 181Z" fill="white"/>
<path d="M355 205C355 205 354.802 215.407 358.182 219.576C361.562 223.744 370 223.5 370 223.5C370 223.5 361.562 223.256 358.182 227.424C354.802 231.593 355 242 355 242C355 242 355.198 231.593 351.818 227.424C348.438 223.256 340 223.5 340 223.5C340 223.5 348.438 223.744 351.818 219.576C355.198 215.407 355 205 355 205Z" fill="white"/>
<path d="M119.5 37C119.5 37 119.296 47.4073 122.788 51.5756C126.28 55.7438 135 55.5 135 55.5C135 55.5 126.28 55.2562 122.788 59.4244C119.296 63.5927 119.5 74 119.5 74C119.5 74 119.704 63.5927 116.212 59.4244C112.72 55.2562 104 55.5 104 55.5C104 55.5 112.72 55.7438 116.212 51.5756C119.704 47.4073 119.5 37 119.5 37Z" fill="white"/>
<rect x="223" y="153" width="14" height="36" fill="white"/>
<rect x="256" y="145" width="11" height="51" transform="rotate(90 256 145)" fill="white"/>
<rect x="272" y="153" width="14" height="36" fill="white"/>
<rect x="297" y="145" width="11" height="35" transform="rotate(90 297 145)" fill="white"/>
<rect x="297" y="178" width="11" height="35" transform="rotate(90 297 178)" fill="white"/>
<rect x="301" y="153" width="14" height="36" fill="white"/>
<rect x="346" y="145" width="11" height="45" transform="rotate(90 346 145)" fill="white"/>
<rect x="346" y="178" width="11" height="45" transform="rotate(90 346 178)" fill="white"/>
<rect x="346" y="161" width="11" height="45" transform="rotate(90 346 161)" fill="white"/>
<rect x="152" y="199" width="14" height="44" fill="white"/>
<rect x="190" y="199" width="14" height="44" fill="white"/>
<path d="M207 248L225.5 199.5H237.5L252.5 240.5H240.5L239.5 237.5H225.5L230 226H235L231.5 215.5L221 241.5L207 248Z" fill="white"/>
<rect x="197" y="215" width="11" height="45" transform="rotate(90 197 215)" fill="white"/>
<path fill-rule="evenodd" clip-rule="evenodd" d="M301.129 227.869C298.211 238.312 288.289 246 276.5 246C262.418 246 251 235.031 251 221.5C251 207.969 262.418 197 276.5 197C288.66 197 298.832 205.18 301.383 216.125L287.875 216.92C285.961 212.832 281.812 210 277 210C270.371 210 265 215.373 265 222C265 228.627 270.371 234 277 234C281.793 234 285.93 231.191 287.852 227.131L301.129 227.869Z" fill="white"/>
</svg>
