<svg width="378" height="403" viewBox="0 0 378 403" fill="none" xmlns="http://www.w3.org/2000/svg">
<g clip-path="url(#clip0_261_103)">
<path d="M158.758 81.2094C158.758 81.2094 187.668 63.1294 216.868 81.2094C216.868 81.2094 156.438 80.6894 146.328 96.3394L173.458 81.2094H158.748H158.758Z" fill="#BDC8FF"/>
<path d="M319.558 96.3407C319.558 96.3407 318.828 143.961 309.458 159.731C300.088 175.501 340.208 134.891 343.078 81.2207C343.078 81.2207 339.358 98.6607 328.368 113.381L319.568 96.3507L319.558 96.3407Z" fill="#A4AFF4"/>
<path d="M42.7994 312.34C42.7994 312.34 47.0594 355.89 75.9294 368.51C75.9294 368.51 32.5894 364.86 42.7994 312.34Z" fill="#A4AFF4"/>
<path d="M80.3789 53.0497C80.3789 53.0497 113.119 19.5497 137.489 20.8797C137.489 20.8797 95.1689 13.4597 80.3789 53.0497Z" fill="#9097D9"/>
<path d="M16.3014 250.08C16.3014 250.08 -16.6986 74.0795 174.301 19.0795C174.301 19.0795 258.301 -2.92049 297.301 53.0795C297.301 53.0795 342.301 128.08 265.301 220.08C265.301 220.08 170.301 322.079 104.301 290.079C104.301 290.079 73.3014 257.08 93.3014 221.08C93.3014 221.08 43.3014 308.079 117.301 333.079C117.301 333.079 160.301 349.079 235.301 292.079C235.301 292.079 299.301 257.89 323.301 174.98C323.301 174.98 342.301 255.079 206.301 363.079C206.301 363.079 152.301 404.079 87.3014 363.079C87.3014 363.079 2.89138 315.64 77.3014 171.08C77.3014 171.08 130.301 95.0795 191.801 89.0795C191.801 89.0795 275.301 70.0795 243.301 179.08C243.301 179.08 279.301 154.08 273.301 96.0795C273.301 96.0795 268.301 44.0795 191.801 54.0795C191.801 54.0795 125.301 60.0795 76.3014 121.08C76.3014 121.08 18.3014 174.08 16.3014 250.08Z" fill="#9097D9"/>
<path d="M203.04 214.24C229.508 175.468 233.955 132.426 212.973 118.103C191.991 103.779 153.525 123.597 127.057 162.369C100.589 201.14 96.1422 244.182 117.124 258.506C138.106 272.83 176.572 253.011 203.04 214.24Z" fill="#A4AFF4"/>
<path d="M187.417 206.15C205.651 183.316 210.417 156.807 198.061 146.94C185.706 137.073 160.908 147.585 142.673 170.419C124.438 193.253 119.672 219.762 132.028 229.629C144.384 239.496 169.182 228.984 187.417 206.15Z" fill="#BDC8FF"/>
<path d="M208.031 268.089C208.031 268.089 266.291 207.829 264.751 186.299C264.751 186.299 268.411 198.379 264.781 204.149C264.781 204.149 290.491 175.269 286.891 151.119C286.891 151.119 293.841 170.299 284.961 193.529C284.961 193.529 245.321 247.489 208.031 268.089Z" fill="#BDC8FF"/>
<path d="M103.87 139.801C103.87 139.801 58.9805 172.691 47.9805 257.681C47.9805 257.681 57.2005 215.931 69.5305 206.561C69.5305 206.561 64.6005 219.381 65.5805 231.221C65.5805 231.221 79.0505 162.061 103.86 139.811L103.87 139.801Z" fill="#BDC8FF"/>
<path d="M212.301 358.25C212.301 358.25 138.581 379.26 119.841 358.25C119.841 358.25 131.181 372.75 142.031 374.23C142.031 374.23 96.6606 379.65 80.3906 343.65C80.3906 343.65 81.2906 364.94 117.581 376.98C117.581 376.98 164.221 395.53 212.301 358.25Z" fill="#BDC8FF"/>
<path d="M243.832 18.2896C243.832 18.2896 187.142 1.80963 122.172 39.5796C122.172 39.5796 151.562 24.5796 165.042 29.5096C165.042 29.5096 152.882 27.9396 140.552 39.5796C140.552 39.5796 196.702 12.4796 243.832 18.2896Z" fill="#BDC8FF"/>
<path d="M20.8012 165.52C20.8012 165.52 7.94116 223.07 16.3012 250.07C16.3012 250.07 17.7512 211.5 31.3112 186C31.3112 186 26.0512 189.06 22.3912 198.05C22.3912 198.05 16.9412 192.04 20.7912 165.52H20.8012Z" fill="#BDC8FF"/>
<path d="M182.999 315.701C188.262 315.701 192.529 311.434 192.529 306.171C192.529 300.907 188.262 296.641 182.999 296.641C177.735 296.641 173.469 300.907 173.469 306.171C173.469 311.434 177.735 315.701 182.999 315.701Z" fill="#FFF2A1"/>
<path d="M357.95 208.53C366.168 208.53 372.83 201.868 372.83 193.65C372.83 185.432 366.168 178.77 357.95 178.77C349.732 178.77 343.07 185.432 343.07 193.65C343.07 201.868 349.732 208.53 357.95 208.53Z" fill="#FFF2A1"/>
<path d="M57.5105 178.781C62.7737 178.781 67.0405 174.514 67.0405 169.251C67.0405 163.987 62.7737 159.721 57.5105 159.721C52.2472 159.721 47.9805 163.987 47.9805 169.251C47.9805 174.514 52.2472 178.781 57.5105 178.781Z" fill="#FFCB80"/>
<path d="M312.83 53.0601C316.552 53.0601 319.57 50.0425 319.57 46.3201C319.57 42.5977 316.552 39.5801 312.83 39.5801C309.107 39.5801 306.09 42.5977 306.09 46.3201C306.09 50.0425 309.107 53.0601 312.83 53.0601Z" fill="#FFCB80"/>
<path d="M3.37 253.451C5.2312 253.451 6.74 251.942 6.74 250.081C6.74 248.22 5.2312 246.711 3.37 246.711C1.5088 246.711 0 248.22 0 250.081C0 251.942 1.5088 253.451 3.37 253.451Z" fill="#FFCB80"/>
<path d="M312.831 69.8709C314.692 69.8709 316.201 68.3621 316.201 66.5009C316.201 64.6397 314.692 63.1309 312.831 63.1309C310.97 63.1309 309.461 64.6397 309.461 66.5009C309.461 68.3621 310.97 69.8709 312.831 69.8709Z" fill="#673CD3"/>
<path d="M195.901 289.82C197.762 289.82 199.271 288.311 199.271 286.45C199.271 284.589 197.762 283.08 195.901 283.08C194.04 283.08 192.531 284.589 192.531 286.45C192.531 288.311 194.04 289.82 195.901 289.82Z" fill="#673CD3"/>
<path d="M166.122 14.72C170.187 14.72 173.482 11.4248 173.482 7.36C173.482 3.29518 170.187 0 166.122 0C162.057 0 158.762 3.29518 158.762 7.36C158.762 11.4248 162.057 14.72 166.122 14.72Z" fill="#B6FFD3"/>
<path d="M226.848 290.441C230.913 290.441 234.208 287.146 234.208 283.081C234.208 279.016 230.913 275.721 226.848 275.721C222.783 275.721 219.488 279.016 219.488 283.081C219.488 287.146 222.783 290.441 226.848 290.441Z" fill="#B6FFD3"/>
<path d="M335.719 231.181C339.784 231.181 343.079 227.886 343.079 223.821C343.079 219.756 339.784 216.461 335.719 216.461C331.655 216.461 328.359 219.756 328.359 223.821C328.359 227.886 331.655 231.181 335.719 231.181Z" fill="#B6FFD3"/>
<path d="M50.1491 81.22C54.2139 81.22 57.5091 77.9248 57.5091 73.86C57.5091 69.7952 54.2139 66.5 50.1491 66.5C46.0842 66.5 42.7891 69.7952 42.7891 73.86C42.7891 77.9248 46.0842 81.22 50.1491 81.22Z" fill="#FF6C1A"/>
<path d="M42.8011 191.991C44.8335 191.991 46.4811 190.343 46.4811 188.311C46.4811 186.278 44.8335 184.631 42.8011 184.631C40.7687 184.631 39.1211 186.278 39.1211 188.311C39.1211 190.343 40.7687 191.991 42.8011 191.991Z" fill="#FF6C1A"/>
<path d="M335.719 176.61C337.751 176.61 339.399 174.962 339.399 172.93C339.399 170.898 337.751 169.25 335.719 169.25C333.687 169.25 332.039 170.898 332.039 172.93C332.039 174.962 333.687 176.61 335.719 176.61Z" fill="#FF6C1A"/>
<path d="M41.0189 87.1992C41.0189 87.1992 46.3489 97.3792 37.6289 105.859C37.6289 105.859 47.3189 103.189 50.9589 113.369C50.9589 113.369 47.3189 102.709 55.3189 97.8592C55.3189 97.8592 44.8989 100.529 41.0189 87.1992Z" fill="#8FF2FF"/>
<path d="M211.421 241.91C211.421 241.91 216.751 252.09 208.031 260.57C208.031 260.57 217.721 257.9 221.361 268.08C221.361 268.08 217.721 257.42 225.721 252.57C225.721 252.57 215.301 255.24 211.421 241.91Z" fill="#7BF9FF"/>
<path d="M372.43 177.631C372.43 177.631 373.25 183.321 367.73 185.871C367.73 185.871 372.74 186.231 372.77 191.631C372.77 191.631 372.83 186.001 377.41 185.041C377.41 185.041 372.05 184.561 372.44 177.631H372.43Z" fill="#57FBFF"/>
<path d="M8.07109 255C8.07109 255 8.89109 260.69 3.37109 263.24C3.37109 263.24 8.38109 263.6 8.41109 269C8.41109 269 8.47109 263.37 13.0511 262.41C13.0511 262.41 7.69109 261.93 8.08109 255H8.07109Z" fill="#94A4FF"/>
<path d="M298.141 27.1504C298.141 27.1504 298.961 32.8404 293.441 35.3904C293.441 35.3904 298.451 35.7504 298.481 41.1504C298.481 41.1504 298.541 35.5204 303.121 34.5604C303.121 34.5604 297.761 34.0804 298.151 27.1504H298.141Z" fill="#BBFFCE"/>
<path d="M140.89 368.51C140.89 368.51 146.22 378.69 137.5 387.17C137.5 387.17 147.19 384.5 150.83 394.68C150.83 394.68 147.19 384.02 155.19 379.17C155.19 379.17 144.77 381.84 140.89 368.51Z" fill="#66FFFF"/>
<path d="M122.169 402.05C126.233 402.05 129.529 398.755 129.529 394.69C129.529 390.625 126.233 387.33 122.169 387.33C118.104 387.33 114.809 390.625 114.809 394.69C114.809 398.755 118.104 402.05 122.169 402.05Z" fill="#B6FFD3"/>
<path d="M129.53 401.429C131.391 401.429 132.9 399.921 132.9 398.059C132.9 396.198 131.391 394.689 129.53 394.689C127.669 394.689 126.16 396.198 126.16 398.059C126.16 399.921 127.669 401.429 129.53 401.429Z" fill="#673CD3"/>
<path d="M303.108 272.391C303.108 272.391 257.918 338.201 223.148 362.621C223.148 362.621 241.638 358.191 284.548 321.951L266.798 329.351C266.798 329.351 295.048 294.581 303.118 272.391H303.108Z" fill="#9097D9"/>
</g>
<defs>
<clipPath id="clip0_261_103">
<rect width="377.4" height="402.04" fill="white"/>
</clipPath>
</defs>
</svg>
