<svg width="124" height="48" viewBox="0 0 124 48" fill="none" xmlns="http://www.w3.org/2000/svg">
<g clip-path="url(#clip0_261_284)">
<path d="M123 61.5C123 95.4655 95.4656 123 61.5001 123C27.5346 123 0.000138498 95.4655 0.000138498 61.5C0.000138498 27.5345 27.5346 0 61.5001 0C95.4656 0 123 27.5345 123 61.5Z" fill="#B19C45"/>
<path d="M126 63C126 96.1371 99.1372 123 66.0001 123C32.8631 123 6.00014 96.1371 6.00014 63C6.00014 29.8629 32.8631 3 66.0001 3C99.1372 3 126 29.8629 126 63Z" fill="#FBE664"/>
<path d="M78.9934 15.1096C87.9806 17.5177 93.314 26.7554 90.9059 35.7426C88.4978 44.7299 79.26 50.0633 70.2728 47.6552C61.2856 45.2471 55.9522 36.0093 58.3603 27.0221C60.7684 18.0349 70.0062 12.7014 78.9934 15.1096Z" fill="#B19C45"/>
<mask id="mask0_261_284" style="mask-type:alpha" maskUnits="userSpaceOnUse" x="60" y="13" width="34" height="34">
<path d="M81.3838 14.2072C90.1518 16.5565 95.3552 25.569 93.0058 34.337C90.6564 43.105 81.6439 48.3084 72.8759 45.959C64.1079 43.6096 58.9046 34.5972 61.2539 25.8291C63.6033 17.0611 72.6158 11.8578 81.3838 14.2072Z" fill="#FDBD33"/>
</mask>
<g mask="url(#mask0_261_284)">
<path d="M81.3838 14.2072C90.1518 16.5565 95.3552 25.569 93.0058 34.337C90.6564 43.105 81.6439 48.3084 72.8759 45.959C64.1079 43.6096 58.9046 34.5972 61.2539 25.8291C63.6033 17.0611 72.6158 11.8578 81.3838 14.2072Z" fill="#FDBD33"/>
<path d="M72.952 20.5266C82.2839 23.0271 87.8219 32.6192 85.3214 41.9511C82.8209 51.283 73.2288 56.821 63.8969 54.3205C54.565 51.82 49.027 42.228 51.5275 32.896C54.028 23.5641 63.62 18.0262 72.952 20.5266Z" fill="#FBE664"/>
</g>
<path d="M15.8514 51.6383C21.6807 45.809 31.1318 45.809 36.961 51.6383C42.7903 57.4675 42.7903 66.9186 36.961 72.7479C31.1318 78.5772 21.6807 78.5772 15.8514 72.7479C10.0221 66.9186 10.0221 57.4675 15.8514 51.6383Z" fill="#B19C45"/>
<mask id="mask1_261_284" style="mask-type:alpha" maskUnits="userSpaceOnUse" x="12" y="46" width="29" height="29">
<path d="M16.8872 50.8862C22.3472 45.4262 31.1997 45.4262 36.6597 50.8862C42.1197 56.3462 42.1197 65.1987 36.6597 70.6587C31.1997 76.1187 22.3472 76.1187 16.8872 70.6587C11.4272 65.1987 11.4272 56.3462 16.8872 50.8862Z" fill="#FDBD33"/>
</mask>
<g mask="url(#mask1_261_284)">
<path d="M16.8872 50.8862C22.3472 45.4262 31.1997 45.4262 36.6597 50.8862C42.1197 56.3462 42.1197 65.1987 36.6597 70.6587C31.1997 76.1187 22.3472 76.1187 16.8872 70.6587C11.4272 65.1987 11.4272 56.3462 16.8872 50.8862Z" fill="#FDBD33"/>
</g>
<path d="M44.3038 32.0549C39.4851 34.491 34.1479 33.6354 32.3828 30.1438C30.6176 26.6523 33.093 21.847 37.9117 19.4109C42.7304 16.9749 48.0677 17.8305 49.8328 21.322C51.5979 24.8135 49.1225 29.6188 44.3038 32.0549Z" fill="#B19C45"/>
<mask id="mask2_261_284" style="mask-type:alpha" maskUnits="userSpaceOnUse" x="32" y="19" width="17" height="15">
<path d="M43.1298 31.8145C38.9441 33.9306 34.308 33.1874 32.7747 30.1545C31.2414 27.1216 33.3916 22.9476 37.5774 20.8315C41.7631 18.7154 46.3992 19.4586 47.9325 22.4915C49.4657 25.5244 47.3155 29.6984 43.1298 31.8145Z" fill="#FDBD33"/>
</mask>
<g mask="url(#mask2_261_284)">
<path d="M43.1298 31.8145C38.9441 33.9306 34.308 33.1874 32.7747 30.1545C31.2414 27.1216 33.3916 22.9476 37.5774 20.8315C41.7631 18.7154 46.3992 19.4586 47.9325 22.4915C49.4657 25.5244 47.3155 29.6984 43.1298 31.8145Z" fill="#FDBD33"/>
<path d="M40.0102 36.0931C36.0263 38.1071 31.275 36.7298 29.3979 33.0166C27.5207 29.3035 29.2285 24.6608 33.2124 22.6467C37.1962 20.6327 41.9475 22.0101 43.8247 25.7232C45.7018 29.4363 43.994 34.0791 40.0102 36.0931Z" fill="#FBE664"/>
</g>
<ellipse cx="51.5" cy="40.5" rx="3.5" ry="4.5" fill="#FDBD33"/>
<ellipse cx="27.5" cy="31" rx="2.5" ry="3" fill="#FDBD33"/>
<path d="M55.0078 33C55.0078 22.5 57.5 13.5 75.0078 12C68.3242 13.5 56.5 16.5 55.0078 33Z" fill="#B19C45"/>
<path d="M47.0613 31.7469C43.5189 35.4086 39.6135 37.7064 33.0019 32.323C35.8388 34.0547 40.9743 36.9976 47.0613 31.7469Z" fill="#B19C45"/>
<path d="M93.4842 26C98 34.5 98.9942 42 86.9886 48C93.4842 43 95.9875 32.5 93.4842 26Z" fill="#B19C45"/>
<path d="M104.5 35C110.522 42.9031 120.102 63.176 110.249 81.0429" stroke="white" stroke-opacity="0.3" stroke-width="5" stroke-linecap="round"/>
</g>
<defs>
<clipPath id="clip0_261_284">
<rect width="124" height="48" fill="white"/>
</clipPath>
</defs>
</svg>
