<svg width="378" height="403" viewBox="0 0 378 403" fill="none" xmlns="http://www.w3.org/2000/svg">
<g clip-path="url(#clip0_892_10)">
<path d="M158.76 81.2099C158.76 81.2099 187.67 63.1299 216.87 81.2099C216.87 81.2099 156.44 80.6899 146.33 96.3399L173.46 81.2099H158.75H158.76Z" fill="#FFE9A4"/>
<path d="M319.56 96.3402C319.56 96.3402 318.83 143.96 309.46 159.73C300.09 175.5 340.21 134.89 343.08 81.2202C343.08 81.2202 339.36 98.6602 328.37 113.38L319.57 96.3502L319.56 96.3402Z" fill="#FFE9A4"/>
<path d="M42.8001 312.34C42.8001 312.34 47.0601 355.89 75.9301 368.51C75.9301 368.51 32.5901 364.86 42.8001 312.34Z" fill="#FFE9A4"/>
<path d="M80.3799 53.0502C80.3799 53.0502 113.12 19.5502 137.49 20.8802C137.49 20.8802 95.1699 13.4602 80.3799 53.0502Z" fill="#FFCE88"/>
<path d="M16.2999 250.08C16.2999 250.08 -16.7001 74.08 174.3 19.08C174.3 19.08 258.3 -2.92 297.3 53.08C297.3 53.08 342.3 128.08 265.3 220.08C265.3 220.08 170.3 322.08 104.3 290.08C104.3 290.08 73.2999 257.08 93.2999 221.08C93.2999 221.08 43.2999 308.08 117.3 333.08C117.3 333.08 160.3 349.08 235.3 292.08C235.3 292.08 299.3 257.89 323.3 174.98C323.3 174.98 342.3 255.08 206.3 363.08C206.3 363.08 152.3 404.08 87.2999 363.08C87.2999 363.08 2.88992 315.64 77.2999 171.08C77.2999 171.08 130.3 95.08 191.8 89.08C191.8 89.08 275.3 70.08 243.3 179.08C243.3 179.08 279.3 154.08 273.3 96.08C273.3 96.08 268.3 44.08 191.8 54.08C191.8 54.08 125.3 60.08 76.2999 121.08C76.2999 121.08 18.2999 174.08 16.2999 250.08Z" fill="#FFCE88"/>
<path d="M203.039 214.241C229.507 175.469 233.954 132.427 212.972 118.103C191.99 103.78 153.524 123.598 127.056 162.37C100.588 201.141 96.1412 244.183 117.123 258.507C138.105 272.831 176.571 253.012 203.039 214.241Z" fill="#FFE9A4"/>
<path d="M187.417 206.15C205.652 183.316 210.418 156.807 198.062 146.94C185.706 137.073 160.908 147.585 142.673 170.419C124.439 193.253 119.673 219.762 132.029 229.629C144.384 239.496 169.182 228.984 187.417 206.15Z" fill="#FFF5C5"/>
<path d="M208.03 268.09C208.03 268.09 266.29 207.83 264.75 186.3C264.75 186.3 268.41 198.38 264.78 204.15C264.78 204.15 290.49 175.27 286.89 151.12C286.89 151.12 293.84 170.3 284.96 193.53C284.96 193.53 245.32 247.49 208.03 268.09Z" fill="#FFF5C5"/>
<path d="M103.87 139.8C103.87 139.8 58.98 172.69 47.98 257.68C47.98 257.68 57.2 215.93 69.53 206.56C69.53 206.56 64.6 219.38 65.58 231.22C65.58 231.22 79.05 162.06 103.86 139.81L103.87 139.8Z" fill="#FFF5C5"/>
<path d="M212.3 358.25C212.3 358.25 138.58 379.26 119.84 358.25C119.84 358.25 131.18 372.75 142.03 374.23C142.03 374.23 96.6599 379.65 80.3899 343.65C80.3899 343.65 81.2899 364.94 117.58 376.98C117.58 376.98 164.22 395.53 212.3 358.25Z" fill="#FFF5C5"/>
<path d="M243.83 18.2901C243.83 18.2901 187.14 1.81012 122.17 39.5801C122.17 39.5801 151.56 24.5801 165.04 29.5101C165.04 29.5101 152.88 27.9401 140.55 39.5801C140.55 39.5801 196.7 12.4801 243.83 18.2901Z" fill="#FFF5C5"/>
<path d="M20.7999 165.52C20.7999 165.52 7.93994 223.07 16.2999 250.07C16.2999 250.07 17.7499 211.5 31.3099 186C31.3099 186 26.0499 189.06 22.3899 198.05C22.3899 198.05 16.9399 192.04 20.7899 165.52H20.7999Z" fill="#FFF5C5"/>
<path d="M183 315.7C188.263 315.7 192.53 311.433 192.53 306.17C192.53 300.907 188.263 296.64 183 296.64C177.737 296.64 173.47 300.907 173.47 306.17C173.47 311.433 177.737 315.7 183 315.7Z" fill="#FFF2A1"/>
<path d="M357.95 208.53C366.168 208.53 372.83 201.868 372.83 193.65C372.83 185.432 366.168 178.77 357.95 178.77C349.732 178.77 343.07 185.432 343.07 193.65C343.07 201.868 349.732 208.53 357.95 208.53Z" fill="#FFF2A1"/>
<path d="M57.51 178.78C62.7733 178.78 67.04 174.513 67.04 169.25C67.04 163.987 62.7733 159.72 57.51 159.72C52.2467 159.72 47.98 163.987 47.98 169.25C47.98 174.513 52.2467 178.78 57.51 178.78Z" fill="#FFCB80"/>
<path d="M312.83 53.0601C316.552 53.0601 319.57 50.0425 319.57 46.3201C319.57 42.5977 316.552 39.5801 312.83 39.5801C309.108 39.5801 306.09 42.5977 306.09 46.3201C306.09 50.0425 309.108 53.0601 312.83 53.0601Z" fill="#FFCB80"/>
<path d="M3.37 253.45C5.2312 253.45 6.74 251.941 6.74 250.08C6.74 248.219 5.2312 246.71 3.37 246.71C1.5088 246.71 0 248.219 0 250.08C0 251.941 1.5088 253.45 3.37 253.45Z" fill="#FFCB80"/>
<path d="M312.83 69.8699C314.691 69.8699 316.2 68.3611 316.2 66.4999C316.2 64.6387 314.691 63.1299 312.83 63.1299C310.969 63.1299 309.46 64.6387 309.46 66.4999C309.46 68.3611 310.969 69.8699 312.83 69.8699Z" fill="#673CD3"/>
<path d="M195.9 289.82C197.761 289.82 199.27 288.311 199.27 286.45C199.27 284.589 197.761 283.08 195.9 283.08C194.039 283.08 192.53 284.589 192.53 286.45C192.53 288.311 194.039 289.82 195.9 289.82Z" fill="#673CD3"/>
<path d="M166.12 14.72C170.185 14.72 173.48 11.4248 173.48 7.36C173.48 3.29518 170.185 0 166.12 0C162.055 0 158.76 3.29518 158.76 7.36C158.76 11.4248 162.055 14.72 166.12 14.72Z" fill="#B6FFD3"/>
<path d="M226.85 290.44C230.915 290.44 234.21 287.145 234.21 283.08C234.21 279.015 230.915 275.72 226.85 275.72C222.785 275.72 219.49 279.015 219.49 283.08C219.49 287.145 222.785 290.44 226.85 290.44Z" fill="#B6FFD3"/>
<path d="M335.72 231.18C339.785 231.18 343.08 227.885 343.08 223.82C343.08 219.755 339.785 216.46 335.72 216.46C331.655 216.46 328.36 219.755 328.36 223.82C328.36 227.885 331.655 231.18 335.72 231.18Z" fill="#B6FFD3"/>
<path d="M50.15 81.22C54.2149 81.22 57.51 77.9248 57.51 73.86C57.51 69.7952 54.2149 66.5 50.15 66.5C46.0852 66.5 42.79 69.7952 42.79 73.86C42.79 77.9248 46.0852 81.22 50.15 81.22Z" fill="#FF6C1A"/>
<path d="M42.8001 191.99C44.8325 191.99 46.4801 190.342 46.4801 188.31C46.4801 186.277 44.8325 184.63 42.8001 184.63C40.7677 184.63 39.1201 186.277 39.1201 188.31C39.1201 190.342 40.7677 191.99 42.8001 191.99Z" fill="#FF6C1A"/>
<path d="M335.72 176.61C337.752 176.61 339.4 174.962 339.4 172.93C339.4 170.898 337.752 169.25 335.72 169.25C333.688 169.25 332.04 170.898 332.04 172.93C332.04 174.962 333.688 176.61 335.72 176.61Z" fill="#FF6C1A"/>
<path d="M41.0199 87.2002C41.0199 87.2002 46.3499 97.3802 37.6299 105.86C37.6299 105.86 47.3199 103.19 50.9599 113.37C50.9599 113.37 47.3199 102.71 55.3199 97.8602C55.3199 97.8602 44.8999 100.53 41.0199 87.2002Z" fill="#8FF2FF"/>
<path d="M211.42 241.91C211.42 241.91 216.75 252.09 208.03 260.57C208.03 260.57 217.72 257.9 221.36 268.08C221.36 268.08 217.72 257.42 225.72 252.57C225.72 252.57 215.3 255.24 211.42 241.91Z" fill="#7BF9FF"/>
<path d="M372.43 177.63C372.43 177.63 373.25 183.32 367.73 185.87C367.73 185.87 372.74 186.23 372.77 191.63C372.77 191.63 372.83 186 377.41 185.04C377.41 185.04 372.05 184.56 372.44 177.63H372.43Z" fill="#57FBFF"/>
<path d="M8.07012 255C8.07012 255 8.89012 260.69 3.37012 263.24C3.37012 263.24 8.38012 263.6 8.41012 269C8.41012 269 8.47012 263.37 13.0501 262.41C13.0501 262.41 7.69012 261.93 8.08012 255H8.07012Z" fill="#94A4FF"/>
<path d="M298.14 27.1499C298.14 27.1499 298.96 32.8399 293.44 35.3899C293.44 35.3899 298.45 35.7499 298.48 41.1499C298.48 41.1499 298.54 35.5199 303.12 34.5599C303.12 34.5599 297.76 34.0799 298.15 27.1499H298.14Z" fill="#BBFFCE"/>
<path d="M140.89 368.51C140.89 368.51 146.22 378.69 137.5 387.17C137.5 387.17 147.19 384.5 150.83 394.68C150.83 394.68 147.19 384.02 155.19 379.17C155.19 379.17 144.77 381.84 140.89 368.51Z" fill="#66FFFF"/>
<path d="M122.17 402.05C126.235 402.05 129.53 398.755 129.53 394.69C129.53 390.625 126.235 387.33 122.17 387.33C118.105 387.33 114.81 390.625 114.81 394.69C114.81 398.755 118.105 402.05 122.17 402.05Z" fill="#B6FFD3"/>
<path d="M129.53 401.43C131.391 401.43 132.9 399.921 132.9 398.06C132.9 396.199 131.391 394.69 129.53 394.69C127.669 394.69 126.16 396.199 126.16 398.06C126.16 399.921 127.669 401.43 129.53 401.43Z" fill="#673CD3"/>
<path d="M303.11 272.39C303.11 272.39 257.92 338.2 223.15 362.62C223.15 362.62 241.64 358.19 284.55 321.95L266.8 329.35C266.8 329.35 295.05 294.58 303.12 272.39H303.11Z" fill="#FFCE88"/>
</g>
<defs>
<clipPath id="clip0_892_10">
<rect width="377.4" height="402.04" fill="white"/>
</clipPath>
</defs>
</svg>
