<svg width="403" height="451" viewBox="0 0 403 451" fill="none" xmlns="http://www.w3.org/2000/svg">
<g clip-path="url(#clip0_892_932)">
<path d="M169.529 91.0996C169.529 91.0996 200.4 70.8178 231.581 91.0996C231.581 91.0996 167.052 90.5162 156.256 108.072L185.226 91.0996H169.518H169.529Z" fill="#FFE9A4"/>
<path d="M341.237 108.072C341.237 108.072 340.457 161.491 330.451 179.182C320.446 196.872 363.287 151.317 366.352 91.1108C366.352 91.1108 362.38 110.675 350.644 127.187L341.247 108.083L341.237 108.072Z" fill="#FFE9A4"/>
<path d="M45.7032 350.376C45.7032 350.376 50.2522 399.23 81.0805 413.387C81.0805 413.387 34.8007 409.292 45.7032 350.376Z" fill="#FFE9A4"/>
<path d="M85.8324 59.5106C85.8324 59.5106 120.793 21.931 146.816 23.4229C146.816 23.4229 101.626 15.0993 85.8324 59.5106Z" fill="#FFCE88"/>
<path d="M17.4057 280.534C17.4057 280.534 -17.8328 83.1012 186.123 21.4034C186.123 21.4034 275.821 -3.27576 317.467 59.5438C317.467 59.5438 365.519 143.677 283.296 246.881C283.296 246.881 181.852 361.302 111.375 325.405C111.375 325.405 78.2721 288.387 99.6288 248.003C99.6288 248.003 46.2372 345.597 125.257 373.642C125.257 373.642 171.174 391.59 251.261 327.649C251.261 327.649 319.602 289.295 345.23 196.289C345.23 196.289 365.519 286.143 220.294 407.295C220.294 407.295 162.631 453.288 93.2218 407.295C93.2218 407.295 3.08605 354.078 82.5435 191.914C82.5435 191.914 139.139 106.659 204.81 99.9279C204.81 99.9279 293.974 78.6141 259.804 200.888C259.804 200.888 298.246 172.844 291.839 107.78C291.839 107.78 286.499 49.4478 204.81 60.6656C204.81 60.6656 133.799 67.3963 81.4756 135.825C81.4756 135.825 19.5413 195.279 17.4057 280.534Z" fill="#FFCE88"/>
<path d="M216.812 240.331C245.075 196.838 249.823 148.554 227.418 132.486C205.013 116.418 163.938 138.65 135.674 182.143C107.411 225.636 102.663 273.919 125.068 289.987C147.473 306.056 188.548 283.823 216.812 240.331Z" fill="#FFE9A4"/>
<path d="M200.13 231.254C219.602 205.64 224.691 175.902 211.497 164.834C198.303 153.765 171.823 165.557 152.351 191.172C132.88 216.787 127.791 246.524 140.984 257.593C154.178 268.661 180.658 256.869 200.13 231.254Z" fill="#FFF5C5"/>
<path d="M222.141 300.738C222.141 300.738 284.353 233.14 282.709 208.988C282.709 208.988 286.617 222.539 282.741 229.011C282.741 229.011 310.195 196.614 306.351 169.523C306.351 169.523 313.772 191.039 304.29 217.098C304.29 217.098 261.961 277.629 222.141 300.738Z" fill="#FFF5C5"/>
<path d="M110.916 156.825C110.916 156.825 62.9808 193.72 51.2346 289.06C51.2346 289.06 61.08 242.226 74.2464 231.715C74.2464 231.715 68.982 246.096 70.0285 259.378C70.0285 259.378 84.4122 181.795 110.905 156.836L110.916 156.825Z" fill="#FFF5C5"/>
<path d="M226.701 401.877C226.701 401.877 147.98 425.446 127.969 401.877C127.969 401.877 140.078 418.143 151.664 419.804C151.664 419.804 103.217 425.884 85.8431 385.5C85.8431 385.5 86.8041 409.382 125.556 422.888C125.556 422.888 175.359 443.697 226.701 401.877Z" fill="#FFF5C5"/>
<path d="M260.37 20.5174C260.37 20.5174 199.834 2.03051 130.457 44.4001C130.457 44.4001 161.841 27.5734 176.235 33.1038C176.235 33.1038 163.25 31.3426 150.084 44.4001C150.084 44.4001 210.043 13.9999 260.37 20.5174Z" fill="#FFF5C5"/>
<path d="M22.2109 185.677C22.2109 185.677 8.47858 250.235 17.4057 280.523C17.4057 280.523 18.954 237.256 33.4338 208.651C33.4338 208.651 27.817 212.083 23.9088 222.168C23.9088 222.168 18.0891 215.426 22.2002 185.677H22.2109Z" fill="#FFF5C5"/>
<path d="M195.413 354.146C201.034 354.146 205.59 349.359 205.59 343.455C205.59 337.551 201.034 332.765 195.413 332.765C189.793 332.765 185.237 337.551 185.237 343.455C185.237 349.359 189.793 354.146 195.413 354.146Z" fill="#FFF2A1"/>
<path d="M382.231 233.925C391.006 233.925 398.12 226.451 398.12 217.233C398.12 208.014 391.006 200.541 382.231 200.541C373.455 200.541 366.341 208.014 366.341 217.233C366.341 226.451 373.455 233.925 382.231 233.925Z" fill="#FFF2A1"/>
<path d="M61.4111 200.552C67.0314 200.552 71.5875 195.765 71.5875 189.861C71.5875 183.957 67.0314 179.17 61.4111 179.17C55.7908 179.17 51.2346 183.957 51.2346 189.861C51.2346 195.765 55.7908 200.552 61.4111 200.552Z" fill="#FFCB80"/>
<path d="M334.05 59.5215C338.025 59.5215 341.247 56.1364 341.247 51.9607C341.247 47.785 338.025 44.3999 334.05 44.3999C330.075 44.3999 326.853 47.785 326.853 51.9607C326.853 56.1364 330.075 59.5215 334.05 59.5215Z" fill="#FFCB80"/>
<path d="M3.5986 284.315C5.58604 284.315 7.19719 282.622 7.19719 280.534C7.19719 278.446 5.58604 276.754 3.5986 276.754C1.61115 276.754 0 278.446 0 280.534C0 282.622 1.61115 284.315 3.5986 284.315Z" fill="#FFCB80"/>
<path d="M334.05 78.3787C336.037 78.3787 337.649 76.6861 337.649 74.5983C337.649 72.5104 336.037 70.8179 334.05 70.8179C332.063 70.8179 330.451 72.5104 330.451 74.5983C330.451 76.6861 332.063 78.3787 334.05 78.3787Z" fill="#673CD3"/>
<path d="M209.188 325.114C211.176 325.114 212.787 323.422 212.787 321.334C212.787 319.246 211.176 317.553 209.188 317.553C207.201 317.553 205.59 319.246 205.59 321.334C205.59 323.422 207.201 325.114 209.188 325.114Z" fill="#673CD3"/>
<path d="M177.388 16.5126C181.729 16.5126 185.248 12.8161 185.248 8.25629C185.248 3.69647 181.729 0 177.388 0C173.048 0 169.529 3.69647 169.529 8.25629C169.529 12.8161 173.048 16.5126 177.388 16.5126Z" fill="#B6FFD3"/>
<path d="M242.238 325.809C246.578 325.809 250.097 322.113 250.097 317.553C250.097 312.993 246.578 309.297 242.238 309.297C237.897 309.297 234.379 312.993 234.379 317.553C234.379 322.113 237.897 325.809 242.238 325.809Z" fill="#B6FFD3"/>
<path d="M358.493 259.333C362.833 259.333 366.352 255.636 366.352 251.077C366.352 246.517 362.833 242.82 358.493 242.82C354.152 242.82 350.633 246.517 350.633 251.077C350.633 255.636 354.152 259.333 358.493 259.333Z" fill="#B6FFD3"/>
<path d="M53.5518 91.1107C57.8924 91.1107 61.4111 87.4143 61.4111 82.8544C61.4111 78.2946 57.8924 74.5981 53.5518 74.5981C49.2113 74.5981 45.6926 78.2946 45.6926 82.8544C45.6926 87.4143 49.2113 91.1107 53.5518 91.1107Z" fill="#FF6C1A"/>
<path d="M45.7032 215.371C47.8735 215.371 49.6329 213.522 49.6329 211.242C49.6329 208.962 47.8735 207.114 45.7032 207.114C43.533 207.114 41.7736 208.962 41.7736 211.242C41.7736 213.522 43.533 215.371 45.7032 215.371Z" fill="#FF6C1A"/>
<path d="M358.493 198.117C360.663 198.117 362.422 196.269 362.422 193.989C362.422 191.709 360.663 189.861 358.493 189.861C356.322 189.861 354.563 191.709 354.563 193.989C354.563 196.269 356.322 198.117 358.493 198.117Z" fill="#FF6C1A"/>
<path d="M43.8025 97.8193C43.8025 97.8193 49.4941 109.239 40.1826 118.752C40.1826 118.752 50.5299 115.757 54.4168 127.176C54.4168 127.176 50.5299 115.218 59.0725 109.778C59.0725 109.778 47.9457 112.773 43.8025 97.8193Z" fill="#8FF2FF"/>
<path d="M225.761 271.37C225.761 271.37 231.453 282.789 222.141 292.302C222.141 292.302 232.489 289.307 236.375 300.727C236.375 300.727 232.489 288.768 241.031 283.328C241.031 283.328 229.904 286.323 225.761 271.37Z" fill="#7BF9FF"/>
<path d="M397.693 199.262C397.693 199.262 398.569 205.645 392.674 208.505C392.674 208.505 398.024 208.909 398.056 214.967C398.056 214.967 398.12 208.651 403.011 207.574C403.011 207.574 397.287 207.036 397.704 199.262H397.693Z" fill="#57FBFF"/>
<path d="M8.61741 286.054C8.61741 286.054 9.49304 292.437 3.5986 295.297C3.5986 295.297 8.94844 295.701 8.98048 301.759C8.98048 301.759 9.04455 295.443 13.9352 294.366C13.9352 294.366 8.21164 293.828 8.62809 286.054H8.61741Z" fill="#94A4FF"/>
<path d="M318.364 30.4561C318.364 30.4561 319.239 36.839 313.345 39.6995C313.345 39.6995 318.695 40.1034 318.727 46.161C318.727 46.161 318.791 39.8453 323.681 38.7684C323.681 38.7684 317.958 38.23 318.374 30.4561H318.364Z" fill="#BBFFCE"/>
<path d="M150.447 413.387C150.447 413.387 156.138 424.806 146.827 434.319C146.827 434.319 157.174 431.324 161.061 442.744C161.061 442.744 157.174 430.786 165.717 425.345C165.717 425.345 154.59 428.34 150.447 413.387Z" fill="#66FFFF"/>
<path d="M130.457 451.011C134.798 451.011 138.316 447.315 138.316 442.755C138.316 438.195 134.798 434.499 130.457 434.499C126.117 434.499 122.598 438.195 122.598 442.755C122.598 447.315 126.117 451.011 130.457 451.011Z" fill="#B6FFD3"/>
<path d="M138.316 450.316C140.304 450.316 141.915 448.623 141.915 446.535C141.915 444.447 140.304 442.755 138.316 442.755C136.329 442.755 134.718 444.447 134.718 446.535C134.718 448.623 136.329 450.316 138.316 450.316Z" fill="#673CD3"/>
<path d="M323.671 305.562C323.671 305.562 275.415 379.386 238.287 406.78C238.287 406.78 258.031 401.81 303.852 361.157L284.898 369.458C284.898 369.458 315.064 330.454 323.681 305.562H323.671Z" fill="#FFCE88"/>
</g>
<defs>
<clipPath id="clip0_892_932">
<rect width="403" height="451" fill="white"/>
</clipPath>
</defs>
</svg>
