<svg width="1500" height="1525" viewBox="0 0 1500 1525" fill="none" xmlns="http://www.w3.org/2000/svg">
<path d="M975 156.913C852.5 100.765 652.28 117.083 541 219.578L431.5 428.127C440.761 551.03 357.645 518.143 281 468.733C204.355 419.324 168.238 410.546 130.5 468.733C66.4983 576.016 4.5 521.873 -8 385.013V1140H1518V0C1435.41 13.6776 1400 84.2216 1313 141.873C1219.5 203.832 1081 205.498 975 156.913Z" fill="#9E0C7A"/>
<path d="M1358.41 1398.65C1480.5 1579 1579 1548 1520.83 1418.94V1140H-36.9961C170.056 1352.03 311.985 1321.52 264.071 1221.14C198.707 1084.21 484.918 1303.81 633.471 1359.09C782.023 1414.37 964.181 1398.23 875.612 1313.72C787.042 1229.2 1020.2 1329.41 1071.21 1359.09C1119.45 1387.17 1278.85 1412.35 1212 1359.09C1155.04 1313.72 1236.31 1218.3 1358.41 1398.65Z" fill="#9E0C7A"/>
<path d="M1336.5 1314.5C1526.75 1427.9 1541 1529.5 1500.75 1366.5L1517.5 1173.07L-109 1048C109.575 1254.19 263.579 1272.09 211.59 1173.07C140.668 1037.98 440.791 1249.51 594.954 1300.6C749.117 1351.69 942.832 1382.61 849.502 1300.6C756.173 1218.58 994.153 1255.4 1034 1300.6C1078 1350.5 1201.08 1386.81 1163.5 1300.6C1133.9 1232.68 1146.26 1201.1 1336.5 1314.5Z" fill="#61114D"/>
<path d="M292.352 230.447C404.76 303.382 458.62 288.923 546.655 214.697L431.95 443.592C425.111 344.07 387.031 299.968 292.352 230.447Z" fill="#9E0C7A"/>
<path d="M558.5 259C663.5 125 864 107.922 995 221.922C1082.96 298.469 1203 359.5 1321 200.873C1383.29 117.134 1443.41 72.6776 1526 59V1256L0 1066V444.013C12.5 580.873 124 655.5 138.5 527.733C149.705 429 209.855 456.461 286.5 505.87C363.145 555.279 557 613.5 463.5 427C409.5 325 394.778 301.729 351.5 270.5C444.526 311.147 501.701 303.809 558.5 259Z" fill="#61114D"/>
</svg>
