<svg width="260" height="214" viewBox="0 0 260 214" fill="none" xmlns="http://www.w3.org/2000/svg">
<path d="M94.5 169C73.3 161.8 61.6667 134 58.5 121L102 121C92.6667 124.167 78.1 138.2 94.5 169Z" fill="#762A2A"/>
<path d="M169.754 62.5088C157.13 44.0178 127.228 40.2697 113.855 40.707L125.526 82.6121C126.073 72.7714 135.684 54.9737 169.754 62.5088Z" fill="#762A2A"/>
<mask id="mask0_262_348" style="mask-type:alpha" maskUnits="userSpaceOnUse" x="24" y="28" width="173" height="144">
<ellipse cx="110.724" cy="99.6566" rx="51.5" ry="99.2971" transform="rotate(-54.4234 110.724 99.6566)" fill="#D9D9D9"/>
</mask>
<g mask="url(#mask0_262_348)">
<ellipse cx="110.724" cy="99.6566" rx="51.5" ry="99.2971" transform="rotate(-54.4234 110.724 99.6566)" fill="#9B4D3D"/>
<ellipse cx="118.543" cy="105.246" rx="74.201" ry="89.6889" transform="rotate(-54.4234 118.543 105.246)" fill="#DADADA"/>
<ellipse cx="207.471" cy="168.856" rx="74.201" ry="93.5675" transform="rotate(-54.4234 207.471 168.856)" fill="#9B4D3D"/>
<ellipse cx="236.638" cy="189.719" rx="75.4754" ry="108.945" transform="rotate(-54.4234 236.638 189.719)" fill="#5682B1"/>
<ellipse cx="169.976" cy="142.035" rx="34.3192" ry="17.9689" transform="rotate(-54.4234 169.976 142.035)" fill="#4A5A6A"/>
</g>
<circle cx="85.5" cy="81.5" r="30.5" fill="#5682B1"/>
<mask id="mask1_262_348" style="mask-type:alpha" maskUnits="userSpaceOnUse" x="63" y="59" width="45" height="45">
<circle cx="85.5" cy="81.5" r="22.5" fill="#A3C6E5"/>
</mask>
<g mask="url(#mask1_262_348)">
<circle cx="85.5" cy="81.5" r="22.5" fill="#7B9CBB"/>
<circle cx="82.5" cy="93.5" r="25.5" fill="#A3C6E5"/>
</g>
<path d="M154.499 180.001C165.699 197.601 201.499 203.667 217.999 204.501C211.998 202.101 211.166 197.167 211.5 195L259 212.5C253.167 203.833 239.1 183.2 229.5 170C235.1 173.2 237.5 174.667 238 175C232.5 157.167 214.699 121.201 187.499 120.001C153.499 118.501 140.499 158.001 154.499 180.001Z" fill="#8E2B2B"/>
<path d="M168.028 169.143C174.134 178.272 193.651 181.419 202.647 181.851C199.376 180.606 198.922 178.047 199.104 176.923L225 186C221.82 181.505 214.151 170.802 208.917 163.956C211.97 165.616 213.279 166.376 213.551 166.549C210.552 157.299 200.848 138.644 186.019 138.022C167.483 137.244 160.395 157.732 168.028 169.143Z" fill="#FFB185"/>
<ellipse cx="142.705" cy="84.6716" rx="12.5" ry="21" transform="rotate(-36.6505 142.705 84.6716)" fill="#5682B1"/>
<ellipse cx="146.68" cy="89.9701" rx="9.24047" ry="15.524" transform="rotate(-36.6505 146.68 89.9701)" fill="#FFB185"/>
<mask id="mask2_262_348" style="mask-type:alpha" maskUnits="userSpaceOnUse" x="25" y="29" width="235" height="185">
<path fill-rule="evenodd" clip-rule="evenodd" d="M114.632 42.6219L114.296 41.4129C127.667 40.9754 157.569 44.7234 170.194 63.2137C160.257 61.0164 152.397 60.9734 146.241 62.2606C169.995 80.4559 186.827 102.145 193.78 121.513C217.686 127.093 233.343 159.182 238.44 175.706C238.253 175.581 237.803 175.3 237.026 174.831C235.714 174.042 233.46 172.716 229.94 170.706C239.542 183.905 253.608 204.54 259.44 213.206L211.94 195.706C211.608 197.874 212.44 202.807 218.44 205.206C201.94 204.374 166.139 198.305 154.94 180.706C153.104 177.823 151.737 174.641 150.815 171.29C131.866 169.346 109.354 160.919 87.5808 146.622C87.948 152.952 90.0886 160.595 94.9402 169.706C75.0378 162.948 63.5652 138.034 59.616 124.253C29.7644 95.1844 16.7918 61.6199 30.4011 42.5926C43.7097 23.991 78.3699 24.9441 114.632 42.6219Z" fill="#FFB185"/>
</mask>
<g mask="url(#mask2_262_348)">
<path d="M63.5 35.0008C43.1 31.8007 31.3333 41.0008 28 46.0008C100 -91.9988 250 133.5 242.5 181C235.5 163.5 202.5 120 175.5 150C153.9 174 195.167 197.334 218.5 206C177.5 207 86.4 192 50 124C90 144.8 131.667 150 147.5 150C147.833 144.667 153.2 130.6 172 117C158.5 77.0003 89 39.0008 63.5 35.0008Z" fill="#262626" fill-opacity="0.3"/>
</g>
</svg>
