<svg width="104" height="99" viewBox="0 0 104 99" fill="none" xmlns="http://www.w3.org/2000/svg">
<mask id="mask0_262_356" style="mask-type:alpha" maskUnits="userSpaceOnUse" x="0" y="0" width="104" height="99">
<path d="M52.4987 0C43.2987 6.4 38.332 25.6667 36.9987 34.5C29.8325 32.3333 12.5 29.9 0.5 37.5C6.1 50.3 24.1658 58.1667 32.4987 60.5C26.9987 67.5 16.9987 84.6 20.9987 97C31.4987 95 48.9987 82.5 52.4987 76C55.9987 82.5 67.9987 93 83.9987 99C86.3987 81.4 77.332 67.3333 72.4987 62.5C79.1654 59.5 94.6987 50.3 103.499 37.5C93.0987 33.1 74.4987 35.6667 66.4987 37.5C65.6654 22.3333 62.4987 9.5 52.4987 0Z" fill="#FFF2A1"/>
</mask>
<g mask="url(#mask0_262_356)">
<rect x="-20" y="-15" width="144" height="139" fill="#FFF2A1"/>
<path d="M43.5 44C43.5 20.8 49.8333 3.66667 53 -2L-9 40.5C-2 36 18.3 30.4 43.5 44Z" fill="#FFE771"/>
<path d="M37.5 61H31.5C22.3333 70 7.3 90.1 20.5 98.5C19.7 83.3 31.5 67.1667 37.5 61Z" fill="#FFE771"/>
<path d="M86 100C66.4 88.8 57.5 77 55.5 72.5L53 76.5C54.5 87.5 63.2 107.6 86 100Z" fill="#FFE771"/>
</g>
</svg>
