<svg width="662" height="1048" viewBox="0 0 662 1048" fill="none" xmlns="http://www.w3.org/2000/svg">
<path d="M244.414 71.4153L242.673 107.247L262.831 120.12L238.991 124.813L226.145 158.579L227.886 122.748L207.728 109.875L231.568 105.182L244.414 71.4153Z" fill="#8B27D7"/>
<path d="M417.501 169.948L418.018 199.428L389.155 184.522L417.501 169.948Z" fill="#8B27D7"/>
<path d="M420.698 212.739L432.035 225.319L414.373 227.551L420.698 212.739Z" fill="#8B27D7"/>
<path d="M206.885 184.928L201.507 205.363L183.972 189.678L206.885 184.928Z" fill="#8B27D7"/>
<path d="M206.187 989.645C199 1045.07 211.066 983.056 232.403 968.699C253.739 954.342 236.056 975.038 266.996 856.977C297.426 740.863 137.171 340.559 143.406 324.253C143.557 324.088 143.709 323.924 143.861 323.76C143.662 323.814 143.51 323.98 143.406 324.253C77.6321 395.826 41.6007 595.076 65.2624 629.928C88.9786 664.861 69.883 670.269 97.9464 753.84C126.01 837.41 131.837 817.878 142.058 828.908C152.278 839.937 161.094 853.845 163.698 873.685C166.685 896.435 177.462 879.971 182.288 909.127C186.767 936.18 213.373 934.222 206.187 989.645Z" fill="#551C82"/>
<path d="M320.759 57.0112C327.719 1.38829 315.862 63.6744 294.366 78.328C272.87 92.9816 290.636 72.0224 260.004 190.705C229.878 307.431 394.155 706.514 387.941 722.93C387.788 723.097 387.636 723.264 387.483 723.43C387.685 723.373 387.837 723.205 387.941 722.93C454.055 650.389 489.384 450.293 465.263 415.669C441.087 380.965 460.366 375.306 431.524 291.923C402.682 208.54 396.898 228.183 386.501 217.261C376.104 206.338 367.112 192.514 364.369 172.667C361.222 149.909 350.416 166.541 345.373 137.388C340.694 110.337 313.8 112.634 320.759 57.0112Z" fill="#551C82"/>
<path d="M446.958 538.763C438.904 622.512 414.336 697.25 380.452 752.377C371.536 766.882 361.976 780.03 351.902 791.626C317.701 830.994 277.577 852.489 236.66 848.553C195.743 844.618 160.452 815.871 134.381 770.706C126.701 757.402 119.822 742.674 113.834 726.735C91.0776 666.161 81.2045 588.11 89.259 504.361C99.4329 398.577 135.953 307.168 184.316 251.499C218.517 212.13 258.641 190.636 299.557 194.571C340.474 198.506 375.766 227.254 401.837 272.419C438.703 336.285 457.132 432.979 446.958 538.763Z" fill="#8B27D7"/>
<path d="M236.66 848.553C195.743 844.618 160.452 815.871 134.381 770.706C183.008 859.093 209.832 920.234 223.975 980.445C252.544 922.964 290.981 868.436 351.902 791.626C317.701 830.994 277.577 852.489 236.66 848.553Z" fill="#8B27D7"/>
<path d="M184.316 251.499C218.517 212.13 258.641 190.636 299.557 194.571C340.474 198.506 375.766 227.254 401.837 272.419C353.862 187.387 332.236 140.306 313.008 54.7164C275.291 137.289 248.298 180.914 184.316 251.499Z" fill="#8B27D7"/>
<path d="M423.582 535.49C416.576 608.342 395.224 673.358 365.781 721.316C358.034 733.935 349.727 745.372 340.973 755.461C311.256 789.71 276.396 808.412 240.85 804.994C205.303 801.575 174.646 776.572 152.002 737.286C145.331 725.714 139.356 712.903 134.156 699.04C114.393 646.349 105.824 578.455 112.831 505.603C121.681 413.582 153.418 334.063 195.44 285.632C225.157 251.383 260.017 232.681 295.563 236.099C331.11 239.518 361.767 264.521 384.411 303.806C416.432 359.359 432.432 443.469 423.582 535.49Z" fill="#501464"/>
<path d="M240.85 804.994C205.303 801.575 174.646 776.572 152.002 737.286C194.237 814.168 217.535 867.35 229.815 919.725C254.641 869.721 288.039 822.283 340.973 755.461C311.256 789.71 276.396 808.412 240.85 804.994Z" fill="#501464"/>
<path d="M195.44 285.632C225.157 251.383 260.017 232.681 295.563 236.099C331.11 239.518 361.767 264.521 384.411 303.806C342.742 229.844 323.959 188.892 307.264 114.441C274.488 186.273 251.033 224.224 195.44 285.632Z" fill="#501464"/>
<path d="M450.725 618.824L463.065 653.238L486.827 659.153L466.485 670.986L467.694 706.893L455.354 672.48L431.592 666.565L451.934 654.732L450.725 618.824Z" fill="#8B27D7"/>
<path d="M342.938 852.568L333.31 887.234L350.318 903.344L325.804 903.731L305.696 934.429L315.325 899.763L298.317 883.653L322.83 883.266L342.938 852.568Z" fill="#8B27D7"/>
<path d="M156.909 202.376L162.892 224.21L179.838 229.008L163.812 235.328L161.472 257.546L155.489 235.712L138.543 230.915L154.57 224.594L156.909 202.376Z" fill="#8B27D7"/>
<path d="M430.89 706.401L433.122 721.415L445.454 726.032L432.648 728.881L428.535 743.45L426.303 728.435L413.971 723.819L426.778 720.969L430.89 706.401Z" fill="#8B27D7"/>
<path d="M136.544 868.79L119.018 838.078L159.634 838.993L136.544 868.79Z" fill="#8B27D7"/>
<path d="M152.678 902.735L135.636 891.489L156.306 883.921L152.678 902.735Z" fill="#8B27D7"/>
<path d="M436.671 287.569L432.459 254.915L465.358 267.713L436.671 287.569Z" fill="#8B27D7"/>
<path d="M502.828 304.917L486.094 295.53L502.786 286.995L502.828 304.917Z" fill="#8B27D7"/>
<path d="M60.0826 635.503L74.1847 666.058L38.8085 661.764L60.0826 635.503Z" fill="#8B27D7"/>
<path d="M28.0124 614.938L46.7718 610.329L42.9231 627.24L28.0124 614.938Z" fill="#8B27D7"/>
</svg>
