<svg width="734" height="1124" viewBox="0 0 734 1124" fill="none" xmlns="http://www.w3.org/2000/svg">
<path d="M106.073 142.484L116.31 176.866L139.597 182.327L118.661 194.659L117.737 230.775L107.5 196.393L84.2131 190.932L105.149 178.6L106.073 142.484Z" fill="#276DD7"/>
<path d="M374.457 1021.45C386.053 1076.12 376.876 1013.61 392.245 992.994C407.614 972.374 397.794 997.763 387.839 876.122C378.049 756.486 94.1336 431.96 94.609 414.51C94.6974 414.304 94.7862 414.098 94.8753 413.894C94.7049 414.011 94.617 414.217 94.609 414.51C56.2868 503.842 88.357 703.767 122.236 728.803C156.193 753.897 139.971 765.33 194.155 834.869C248.34 904.407 247.362 884.048 260.661 891.065C273.96 898.081 286.889 908.279 295.924 926.134C306.285 946.607 310.993 927.501 325.214 953.407C338.409 977.446 362.861 966.776 374.457 1021.45Z" fill="#1C42BE"/>
<path d="M173.324 103.581C161.447 48.7976 170.912 111.492 155.491 132.444C140.069 153.396 149.881 127.731 160.333 249.857C170.612 369.969 457.917 692.009 457.498 709.557C457.409 709.765 457.321 709.973 457.231 710.18C457.403 710.06 457.491 709.851 457.498 709.557C495.82 619.199 462.806 418.707 428.57 394.039C394.255 369.314 410.568 357.583 355.71 288.48C300.853 219.376 301.909 239.826 288.479 232.969C275.049 226.111 261.982 216.05 252.813 198.236C242.299 177.808 237.618 197.083 223.195 171.251C209.812 147.281 185.2 158.365 173.324 103.581Z" fill="#1C42BE"/>
<path d="M452.114 516.24C472.283 597.921 473.885 676.578 460.196 739.822C456.594 756.462 451.934 772.036 446.274 786.316C427.06 834.797 396.333 868.379 356.426 878.233C316.519 888.087 273.692 872.667 234.121 838.701C222.465 828.696 211.091 817.082 200.158 804.03C158.604 754.427 123.411 684.065 103.242 602.383C77.7666 499.21 81.9132 400.862 109.082 332.307C128.296 283.826 159.023 250.244 198.93 240.39C238.837 230.536 281.664 245.956 321.235 279.922C377.192 327.952 426.639 413.066 452.114 516.24Z" fill="#276DD7"/>
<path d="M356.426 878.233C316.519 888.087 273.692 872.667 234.121 838.701C309.303 905.966 354.882 954.754 388.189 1006.87C396.083 943.168 414.266 878.98 446.274 786.316C427.06 834.797 396.333 868.379 356.426 878.233Z" fill="#276DD7"/>
<path d="M109.082 332.307C128.296 283.826 159.023 250.244 198.93 240.39C238.837 230.536 281.664 245.956 321.235 279.922C247.781 215.607 211.769 178.36 165.25 103.986C157.044 194.393 146.042 244.501 109.082 332.307Z" fill="#276DD7"/>
<path d="M428.975 520.902C446.519 591.957 447.933 660.375 436.056 715.382C432.931 729.855 428.886 743.4 423.973 755.821C407.292 797.985 380.605 827.188 345.936 835.748C311.267 844.309 274.054 830.885 239.665 801.33C229.535 792.624 219.65 782.518 210.148 771.163C174.032 728.006 143.437 666.794 125.892 595.739C103.731 505.989 107.308 420.445 130.895 360.821C147.575 318.656 174.262 289.454 208.931 280.893C243.601 272.333 280.813 285.757 315.202 315.312C363.831 357.105 406.814 431.152 428.975 520.902Z" fill="#112171"/>
<path d="M345.936 835.748C311.267 844.309 274.054 830.885 239.665 801.33C305.002 859.859 344.615 902.308 373.566 947.648C380.408 892.241 396.189 836.414 423.973 755.821C407.292 797.985 380.605 827.188 345.936 835.748Z" fill="#112171"/>
<path d="M130.895 360.821C147.575 318.656 174.262 289.454 208.931 280.893C243.601 272.333 280.813 285.757 315.202 315.312C251.367 259.349 220.069 226.941 179.633 162.237C172.528 240.873 162.982 284.455 130.895 360.821Z" fill="#112171"/>
<path d="M482.213 590.523L505.265 618.899L529.644 616.601L514.376 634.509L527.422 667.984L504.37 639.609L479.991 641.907L495.259 623.998L482.213 590.523Z" fill="#276DD7"/>
<path d="M458.023 846.783L460.434 882.681L481.821 892.24L458.823 900.733L450.03 936.362L447.62 900.464L426.233 890.905L449.231 882.412L458.023 846.783Z" fill="#276DD7"/>
<path d="M66.9389 295.05L79.8225 313.665L97.4011 312.572L84.3764 323.849L89.5362 345.586L76.6526 326.971L59.074 328.064L72.0986 316.787L66.9389 295.05Z" fill="#276DD7"/>
<path d="M492.537 679.722L499.621 693.147L512.786 693.414L501.649 700.348L502.599 715.456L495.515 702.031L482.35 701.765L493.487 694.83L492.537 679.722Z" fill="#276DD7"/>
<path d="M302.038 178.054L312.3 205.694L280.127 201.202L302.038 178.054Z" fill="#276DD7"/>
<path d="M319.243 217.364L334.109 225.474L318.186 233.436L319.243 217.364Z" fill="#276DD7"/>
<path d="M108.304 262.019L110.005 283.081L88.2613 274.097L108.304 262.019Z" fill="#276DD7"/>
<path d="M268.683 930.519L241.966 907.355L280.587 894.752L268.683 930.519Z" fill="#276DD7"/>
<path d="M295.159 957.195L275.352 952.236L292.344 938.242L295.159 957.195Z" fill="#276DD7"/>
<path d="M359.122 282.666L344.322 253.255L379.603 254.422L359.122 282.666Z" fill="#276DD7"/>
<path d="M427.289 277.097L408.389 273.789L421.308 260.203L427.289 277.097Z" fill="#276DD7"/>
<path d="M119.198 735.78L142.633 759.931L107.834 767.61L119.198 735.78Z" fill="#276DD7"/>
<path d="M82.1228 727.011L98.2929 716.443L100.269 733.674L82.1228 727.011Z" fill="#276DD7"/>
</svg>
