<svg width="737" height="1124" viewBox="0 0 737 1124" fill="none" xmlns="http://www.w3.org/2000/svg">
<path d="M109.074 142.459L119.309 176.842L142.596 182.304L121.659 194.635L120.733 230.751L110.498 196.368L87.2116 190.906L108.148 178.575L109.074 142.459Z" fill="#9E0C7A"/>
<path d="M305.038 178.042L315.298 205.683L283.125 201.188L305.038 178.042Z" fill="#9E0C7A"/>
<path d="M322.239 217.353L337.105 225.464L321.181 233.424L322.239 217.353Z" fill="#9E0C7A"/>
<path d="M111.297 261.994L112.997 283.057L91.2541 274.071L111.297 261.994Z" fill="#9E0C7A"/>
<path d="M377.403 1021.44C388.995 1076.11 379.822 1013.61 395.192 992.987C410.563 972.369 400.741 997.756 390.794 876.115C381.012 756.479 97.1167 431.935 97.5933 414.484C97.6816 414.278 97.7705 414.073 97.8596 413.868C97.6892 413.986 97.6013 414.192 97.5933 414.484C59.2654 503.814 91.3229 703.742 125.2 728.78C159.156 753.875 142.933 765.308 197.113 834.85C251.293 904.392 250.316 884.033 263.615 891.05C276.914 898.067 289.842 908.266 298.876 926.121C309.235 946.595 313.945 927.489 328.164 953.397C341.357 977.436 365.81 966.768 377.403 1021.44Z" fill="#8A0A6A" fill-opacity="0.8"/>
<path d="M176.328 103.561C164.454 48.7763 173.916 111.471 158.493 132.422C143.07 153.373 152.884 127.709 163.328 249.835C173.6 369.948 460.884 692.006 460.463 709.555C460.375 709.763 460.286 709.971 460.197 710.178C460.368 710.057 460.456 709.849 460.463 709.555C498.791 619.199 465.79 418.705 431.556 394.035C397.242 369.308 413.556 357.578 358.702 288.471C303.849 219.364 304.904 239.814 291.475 232.956C278.045 226.097 264.979 216.035 255.811 198.22C245.298 177.792 240.616 197.067 226.195 171.233C212.813 147.263 188.201 158.346 176.328 103.561Z" fill="#8A0A6A" fill-opacity="0.8"/>
<path d="M455.092 516.237C475.256 597.92 476.853 676.577 463.16 739.819C459.557 756.459 454.895 772.033 449.235 786.313C430.018 834.793 399.289 868.373 359.381 878.224C319.473 888.075 276.647 872.652 237.078 838.684C225.423 828.678 214.05 817.063 203.117 804.011C161.567 754.406 126.378 684.041 106.215 602.358C80.7455 499.183 84.8983 400.836 112.072 332.282C131.289 283.802 162.018 250.222 201.926 240.371C241.833 230.52 284.659 245.942 324.228 279.911C380.182 327.945 429.623 413.062 455.092 516.237Z" fill="#9E0C7A"/>
<path d="M359.381 878.224C319.473 888.075 276.647 872.652 237.078 838.684C312.256 905.954 357.832 954.745 391.136 1006.86C399.034 943.162 417.221 878.975 449.235 786.313C430.018 834.793 399.289 868.373 359.381 878.224Z" fill="#9E0C7A"/>
<path d="M112.072 332.282C131.289 283.802 162.018 250.222 201.926 240.371C241.833 230.52 284.659 245.942 324.228 279.911C250.778 215.591 214.768 178.341 168.254 103.965C160.043 194.372 149.037 244.478 112.072 332.282Z" fill="#9E0C7A"/>
<path d="M431.952 520.898C449.492 591.953 450.901 660.371 439.021 715.378C435.895 729.851 431.849 743.396 426.935 755.816C410.252 797.98 383.563 827.18 348.893 835.739C314.224 844.297 277.012 830.87 242.624 801.313C232.495 792.607 222.611 782.501 213.109 771.145C176.997 727.985 146.405 666.771 128.865 595.716C106.71 505.964 110.292 420.421 133.882 360.798C150.565 318.634 177.254 289.433 211.924 280.875C246.594 272.317 283.806 285.743 318.193 315.3C366.819 357.096 409.797 431.147 431.952 520.898Z" fill="#61114D"/>
<path d="M348.893 835.739C314.224 844.297 277.012 830.87 242.624 801.313C307.958 859.846 347.568 902.298 376.516 947.64C383.362 892.234 399.146 836.407 426.935 755.816C410.252 797.98 383.563 827.18 348.893 835.739Z" fill="#61114D"/>
<path d="M133.882 360.798C150.565 318.634 177.254 289.433 211.924 280.875C246.594 272.317 283.806 285.743 318.193 315.3C254.361 259.334 223.065 226.923 182.633 162.217C175.523 240.853 165.975 284.434 133.882 360.798Z" fill="#61114D"/>
<path d="M485.186 590.522L508.237 618.899L532.615 616.603L517.346 634.51L530.39 667.986L507.34 639.609L482.961 641.906L498.23 623.998L485.186 590.522Z" fill="#9E0C7A"/>
<path d="M460.98 846.78L463.388 882.678L484.775 892.239L461.776 900.731L452.982 936.359L450.574 900.461L429.187 890.9L452.186 882.408L460.98 846.78Z" fill="#9E0C7A"/>
<path d="M69.9308 295.023L82.8132 313.639L100.392 312.547L87.3665 323.823L92.5248 345.56L79.6424 326.945L62.0638 328.036L75.0891 316.76L69.9308 295.023Z" fill="#9E0C7A"/>
<path d="M495.504 679.722L502.587 693.147L515.753 693.415L504.615 700.349L505.565 715.456L498.481 702.031L485.316 701.764L496.454 694.83L495.504 679.722Z" fill="#9E0C7A"/>
<path d="M271.635 930.505L244.919 907.339L283.541 894.739L271.635 930.505Z" fill="#9E0C7A"/>
<path d="M298.109 957.182L278.302 952.222L295.295 938.229L298.109 957.182Z" fill="#9E0C7A"/>
<path d="M362.115 282.657L347.317 253.246L382.598 254.414L362.115 282.657Z" fill="#9E0C7A"/>
<path d="M430.282 277.093L411.382 273.783L424.302 260.198L430.282 277.093Z" fill="#9E0C7A"/>
<path d="M122.161 735.756L145.595 759.909L110.796 767.585L122.161 735.756Z" fill="#9E0C7A"/>
<path d="M85.0872 726.985L101.258 716.418L103.233 733.649L85.0872 726.985Z" fill="#9E0C7A"/>
</svg>
