<svg width="128" height="103" viewBox="0 0 128 103" fill="none" xmlns="http://www.w3.org/2000/svg">
<ellipse cx="20.5" cy="82" rx="13.5" ry="13" fill="#FFEA80"/>
<ellipse cx="63.5" cy="90" rx="13.5" ry="13" fill="#FFEA80"/>
<ellipse cx="109.5" cy="79" rx="13.5" ry="13" fill="#FFEA80"/>
<mask id="mask0_262_383" style="mask-type:alpha" maskUnits="userSpaceOnUse" x="0" y="36" width="128" height="56">
<ellipse cx="64" cy="64" rx="64" ry="28" fill="#66C3D3"/>
</mask>
<g mask="url(#mask0_262_383)">
<ellipse cx="64" cy="64" rx="64" ry="28" fill="#528A97"/>
<ellipse cx="46" cy="70.5" rx="64" ry="29.5" fill="#6CA9BA"/>
<ellipse cx="33.5" cy="65.5" rx="51.5" ry="24.5" fill="#66C3D3"/>
</g>
<path d="M63.5018 1.00048C27.9018 -0.199518 19.6684 35.1671 20.0018 53.0005C34.5018 58.8337 72.6014 68.2 109 59C108.5 43.5 108.002 2.50048 63.5018 1.00048Z" fill="#B0A18E"/>
<path d="M59.9677 2.0014C27 -3 20.1546 32.1659 20.4879 49.9992C34.9879 55.8324 74.4836 57.9885 79.9677 53.0012C84.805 48.6021 90.9677 20.5012 59.9677 2.0014Z" fill="#EFE7D8"/>
<path d="M19 54.3716V47C62.0391 72.5549 87.8827 59.286 109 51.9144V59.286C66.7654 80.4179 35.7598 65.6747 19 54.3716Z" fill="#5682B1"/>
<path d="M20 69L23.5 59C29.1 63.8 40.5 67.6667 45.5 69L41.5 79.5C35.1 79.1 24.5 72.3333 20 69Z" fill="#C96161"/>
<path d="M103.5 63.5C99.9 66.3 91 68.3333 87 69C87 69.1667 87.1 70.6 87.5 75C91.5 76.6 103.167 71 108.5 68C108.333 67.8333 107.1 66.7 103.5 63.5Z" fill="#B0A18E"/>
</svg>
