<svg width="261" height="299" viewBox="0 0 261 299" fill="none" xmlns="http://www.w3.org/2000/svg">
<ellipse cx="82.3558" cy="82.7778" rx="82.3558" ry="82.7778" transform="matrix(0.80114 0.598477 -0.583951 0.811789 94.8609 32.9175)" fill="url(#paint0_linear_435_375)"/>
<path d="M112.254 88.8273C107.379 89.4139 103.046 84.9564 104.146 80.1155C104.784 77.3072 107.137 75.2622 109.988 75.1474C129.26 74.3716 140.283 77.8671 155.444 87.0706C157.877 88.5475 159.076 91.4609 158.451 94.212C157.36 99.0144 151.58 100.737 147.568 97.7873C136.43 89.6 126.622 87.0981 112.254 88.8273Z" fill="white"/>
<path d="M165.489 114.182C162.436 111.459 162.779 106.263 166.509 104.543C168.366 103.686 170.556 104.002 172.017 105.421C180.808 113.96 183.303 120.698 183.808 131.854C183.899 133.85 182.732 135.688 180.925 136.522C177.246 138.219 173.244 135.007 173.241 130.939C173.237 124.006 170.951 119.055 165.489 114.182Z" fill="white"/>
<defs>
<linearGradient id="paint0_linear_435_375" x1="82.3558" y1="0" x2="82.3558" y2="165.556" gradientUnits="userSpaceOnUse">
<stop stop-color="#9097D9"/>
<stop offset="0.5" stop-color="#6E74A6"/>
<stop offset="1" stop-color="#4C5073"/>
</linearGradient>
</defs>
</svg>
